<svg width="128" height="128" viewBox="0 -96 512 511" xmlns="http://www.w3.org/2000/svg"><path d="m217.542969 62.757812-16.109375-20.167968c-8.203125-10.265625-6.53125-25.246094 3.742187-33.449219l4.304688-3.4375c10.265625-8.199219 25.242187-6.527344 33.445312 3.742187l16.109375 20.164063c8.203125 10.269531 6.527344 25.246094-3.742187 33.449219l-4.304688 3.4375c-10.269531 8.203125-25.242187 6.527344-33.445312-3.738282zm0 0" fill="#fedfc5"/><path d="m259.035156 29.613281-16.109375-20.167969c-6.933593-8.675781-18.691406-11.1875-28.367187-6.816406 3.328125 1.5 6.367187 3.769532 8.800781 6.816406l16.109375 20.167969c8.203125 10.265625 6.53125 25.242188-3.738281 33.445313l-4.304688 3.4375c-1.59375 1.269531-3.304687 2.277344-5.082031 3.078125 7.886719 3.554687 17.425781 2.6875 24.648438-3.078125l4.304687-3.4375c10.265625-8.203125 11.941406-23.179688 3.738281-33.445313zm0 0" fill="#fecbaa"/><path d="m512 262.425781v57.261719h-24.753906v-38.910156l18.410156-21.742188c2.394531-2.828125 6.34375-.714844 6.34375 3.390625zm0 0" fill="#4f7693"/><path d="m88.722656 258.53125h11.128906c4.238282 0 8.398438-1.4375 12.03125-4.15625l13.539063-10.132812c4.328125-3.242188 9.386719-4.648438 14.414063-4.003907l88.507812 11.308594 6.46875 35.46875-6.46875 32.671875h-139.621094l-29.8125-32.671875zm0 0" fill="#badb47"/><path d="m74.660156 287.015625h-52.585937c-12.191407 0-22.074219 9.886719-22.074219 22.074219v6.019531c0 2.527344 2.050781 4.578125 4.578125 4.578125h87.578125c2.53125 0 4.578125-2.050781 4.578125-4.578125v-6.019531c.003906-12.1875-9.878906-22.074219-22.074219-22.074219zm0 0" fill="#e4f4ff"/><path d="m74.660156 287.015625h-52.585937c-12.191407 0-22.074219 9.882813-22.074219 22.074219v6.019531c0 .953125.292969 1.835937.789062 2.570313 2.546876-9.382813 11.097657-16.292969 21.285157-16.292969h52.585937c10.1875 0 18.742188 6.910156 21.285156 16.292969.5-.734376.792969-1.617188.792969-2.570313v-6.019531c0-12.191406-9.886719-22.074219-22.078125-22.074219zm0 0" fill="#bddff4"/><path d="m63.191406 287.015625h-27.695312c-14.101563 0-25.53125-11.429687-25.53125-25.53125v-5.90625c0-14.101563 11.429687-25.53125 25.53125-25.53125h27.695312c14.097656 0 25.53125 11.429687 25.53125 25.53125v5.90625c0 14.101563-11.433594 25.53125-25.53125 25.53125zm0 0" fill="#fedfc5"/><path d="m63.1875 230.046875h-19.347656c14.101562 0 25.53125 11.429687 25.53125 25.53125v5.910156c0 14.097657-11.429688 25.527344-25.53125 25.527344h19.347656c14.101562 0 25.535156-11.429687 25.535156-25.527344v-5.910156c0-14.101563-11.433594-25.53125-25.535156-25.53125zm0 0" fill="#fecbaa"/><path d="m346.3125 151.886719-47.273438 46.476562-52-59.785156c-1.542968-1.773437-4.3125-1.722656-5.789062.101563l-18.179688 22.429687-66.324218 81.800781-26.691406-1.316406 61.09375-105.035156 24.945312-42.886719c1.367188-2.351563 3.179688-4.414063 5.335938-6.070313l47.453124-36.503906c9.777344-7.523437 23.625-6.589844 32.304688 2.160156l25.941406 29.390626-8.339844 9.972656zm0 0" fill="#fedfc5"/><path d="m390.769531 169.539062-44.460937-17.65625-49.820313 40.53125.121094.023438v111.492188h46.960937l1.839844-102.121094 17.660156 3.390625c8.058594 1.546875 13.820313 8.6875 13.628907 16.886719l-2.273438 97.601562h34.917969l4.621094-114.464844c.628906-15.609375-8.671875-29.917968-23.195313-35.683594zm0 0" fill="#7f7ce8"/><path d="m487.246094 280.78125v38.910156h-258.902344v-68.148437l43.757812 4.945312 3.976563.441407 103.246094 11.65625zm0 0" fill="#fd82ac"/><path d="m346.3125 151.886719-47.273438 46.476562-52-59.785156c-1.542968-1.773437-4.3125-1.722656-5.789062.101563l-18.179688 22.429687-31.921874-24.550781 24.945312-42.886719c1.367188-2.351563 3.179688-4.414063 5.335938-6.070313l47.453124-36.503906c9.777344-7.523437 23.625-6.589844 32.304688 2.160156l25.941406 29.390626-8.339844 9.972656zm0 0" fill="#25bed3"/><path d="m416.324219 319.691406-71.257813-.003906-61.847656-61.945312 92.410156 10.429687zm0 0" fill="#fd6096"/><path d="m228.34375 251.546875 54.875 6.195313 7.222656-11.351563 53.714844 50.914063h36.074219l-76.347657-105.421876c-9.035156-12.476562-27.746093-12.109374-36.285156.714844zm0 0" fill="#fd82ac"/><path d="m132.09375 283.085938 39.785156 3.929687v32.671875h-39.785156" fill="#badb47"/><path d="m171.878906 287.015625 133.511719 13.671875c4.21875.433594 7.933594 3.632812 9.746094 8.398438l4.027343 10.601562h-147.285156zm0 0" fill="#fedfc5"/><path d="m328.03125 146.222656c-2.082031 0-4.160156-.835937-5.679688-2.488281l-40.519531-43.480469c-2.882812-3.132812-2.675781-8.011718.457031-10.890625 3.136719-2.882812 8.015626-2.679687 10.898438.457031l40.519531 43.476563c2.882813 3.132813 2.675781 8.011719-.457031 10.894531-1.484375 1.359375-3.355469 2.03125-5.21875 2.03125zm0 0" fill="#11a6bf"/><path d="m345.066406 319.6875-.910156-22.382812h36.074219l16.378906 12.980468c3.6875 3.296875 1.351563 9.402344-3.59375 9.402344zm0 0" fill="#4f7693"/><path d="m302.460938 99.773438 24.667968-17.125 30.027344 34.097656c3.011719 3.785156 3.457031 9.007812 1.132812 13.25l-42.714843 78.03125-15.128907-20.386719 24.828126-54.640625c1.035156-2.277344.679687-4.945312-.917969-6.871094zm0 0" fill="#fedfc5"/></svg>