<svg id="Layer_1" enable-background="new 0 0 496 496" height="128" viewBox="0 0 496 496" width="128" xmlns="http://www.w3.org/2000/svg"><path d="m136 360c-93.5 48-81.6-112-136-112 54.4 0 42.5-160 136-112-48-93.5 112-81.6 112-136 0 54.4 160 42.5 112 136 93.5-48 81.6 112 136 112-54.4 0-42.5 160-136 112 48 93.5-112 81.6-112 136 0-54.4-160-42.501-112-136z" fill="#ff556e"/><path d="m153.161 342.839c-79.173 40.645-69.097-94.839-115.161-94.839 46.065 0 35.988-135.484 115.162-94.839-40.646-79.173 94.838-69.097 94.838-115.161 0 46.065 135.484 35.988 94.839 115.161 79.173-40.645 69.096 94.839 115.161 94.839-46.065 0-35.988 135.484-115.161 94.839 40.645 79.173-94.839 69.096-94.839 115.161 0-46.065-135.484-35.988-94.839-115.161z" fill="#f9708b"/><circle cx="248" cy="248" fill="#ffa1b3" r="152"/><circle cx="248" cy="248" fill="#fcb4c5" r="129"/><path d="m144 144h208v208h-208z" fill="#fecb82"/><path d="m160 160h176v176h-176z" fill="#fcd7a7"/><g fill="#ff556e"><circle cx="272" cy="176" r="8"/><path d="m312 208h-128c-4.418 0-8-3.582-8-8s3.582-8 8-8h128c4.418 0 8 3.582 8 8s-3.582 8-8 8z"/><path d="m272 240c-4.418 0-8-3.582-8-8v-32c0-4.418 3.582-8 8-8s8 3.582 8 8v32c0 4.418-3.582 8-8 8z"/><path d="m192.004 309.338c-3.104 0-6.057-1.816-7.356-4.851l-9.96-23.236c-11.489-26.828 7.968-57.251 37.752-57.251 17.618 0 25.015 2.139 37.427 14.553 3.124 3.125 3.124 8.189 0 11.314-3.125 3.123-8.19 3.124-11.314 0-10.061-10.058-14.376-9.867-26.113-9.867-18.211 0-30.049 18.6-23.046 34.951l9.958 23.233c2.271 5.295-1.644 11.154-7.348 11.154z"/><path d="m287.992 336.001c-6.037 0-10.017-6.581-6.938-11.97l23.103-40.429c10.965-19.194-2.584-43.602-25.53-43.602-12.454 0-24.163 4.85-32.97 13.657-3.125 3.123-8.189 3.123-11.314 0-3.124-3.125-3.124-8.189 0-11.314 11.829-11.829 27.555-18.343 44.284-18.343 35.468 0 56.37 37.878 39.422 67.54l-23.103 40.429c-1.476 2.584-4.176 4.032-6.954 4.032z"/><path d="m241.054 331.969-32-56c-3.031-5.307.784-11.969 6.946-11.969h64c6.118 0 9.999 6.625 6.946 11.969l-32 56c-3.066 5.365-10.823 5.371-13.892 0zm-11.269-51.969 18.215 31.875 18.215-31.875z"/></g></svg>