<svg width="128" height="128" viewBox="-88 0 512 512" xmlns="http://www.w3.org/2000/svg"><path d="m262.378906 118.699219c-1.4375 11.851562-4.539062 23.382812-7.78125 33.011719-2.03125 6.054687-4.125 11.367187-5.894531 15.542968-17.324219-1.050781-38.957031.675782-65.484375 6.613282 0 0-54.414062 8.652343-81.445312 8.652343-14.898438 0-26.804688-114.414062-33.515626-155.957031-2.929687-18.164062-16.703124-26.515625-30.636718-26.55859375l176.601562.08593755 27.0625 48.8554682c4.359375 7.855469 9.082032 15.5 13.753906 23.164063 8.1875 13.453125 9.328126 30.328125 7.339844 46.589844zm0 0" fill="#4a7aff"/><path d="m286.785156 207.074219c23.542969 24.789062 52.496094 69.410156 48.878906 141.910156-2.664062 53.441406-26.054687 100.914063-66.167968 130.257813 0 0-26.410156 14.25-27.835938 32.757812h-228.121094s-40.207031-74.816406 17.957032-190.472656c18.917968-37.605469 30.976562-60.367188 35.625-80.554688zm0 0" fill="#4a7aff"/><path d="m195.691406 221.132812-128.570312 19.839844c-4.648438 20.1875-16.707032 42.949219-35.625 80.554688-58.164063 115.65625-17.957032 190.472656-17.957032 190.472656h182.152344zm0 0" fill="#71b8ff"/><path d="m284.445312 221.078125c-9.128906-.378906-29.617187 2.621094-45.757812 5.210937-12.972656 2.082032-25.75 5.222657-38.191406 9.429688-10.441406 3.53125-20.121094 6.472656-29.121094 8.882812-51.789062 13.859376-81.136719 10.078126-102.917969 1.058594l-36.851562-245.160156c1.921875-.328125 3.871093-.4882812 5.820312-.5h.191407c13.9375.0507812 27.710937 8.398438 30.640624 26.558594 6.707032 41.550781 18.617188 155.960937 33.519532 155.960937 27.027344 0 81.4375-8.648437 81.4375-8.648437 26.53125-5.941406 48.160156-7.671875 65.492187-6.621094 70.988281 4.328125 69.710938 55.261719 35.738281 53.828125zm0 0" fill="#fad2b4"/><path d="m68.457031 245.660156c-3.980469-1.648437-7.710937-3.480468-11.28125-5.398437-15.558593-8.382813-26.089843-23.792969-28.347656-41.332031l-23.453125-163.71875c-2.148438-19.960938 11.210938-32.160157 26.230469-34.710938zm0 0" fill="#fcdeca"/><path d="m250.726562 305.304688-.871093-.875c-14.957031-14.957032-39.207031-14.957032-54.164063 0-14.957031-14.957032-39.207031-14.957032-54.164062 0l-.871094.875c-14.953125 14.953124-14.957031 39.195312-.007812 54.15625l55.019531 55.050781.023437-.023438.023438.023438 55.019531-55.050781c14.949219-14.957032 14.945313-39.203126-.007813-54.15625zm0 0" fill="#ffbdd8"/><path d="m141.183594.0546875-103.5625-.05078125c13.933594.04296875 27.707031 8.39453175 30.636718 26.55859375 6.710938 41.542969 18.613282 155.957031 33.515626 155.957031 27.03125 0 81.445312-8.652343 81.445312-8.652343 3.171875-.710938 6.273438-1.355469 9.304688-1.949219zm0 0" fill="#71b8ff"/><path d="m157.789062 140.824219c-13.34375 12.207031-28.148437 18.378906-44.058593 18.378906-1.167969 0-2.347657-.03125-3.542969-.097656-7.800781-.441407-15.058594-2.328125-21.566406-4.949219-2.960938-12.386719-5.722656-27.726562-8.253906-43.703125 5.441406 5.476563 18.347656 15.804687 31.785156 16.5 8.34375.429687 16.144531-2.800781 23.898437-9.898437zm0 0" fill="#4a7aff"/><path d="m262.378906 118.699219c-1.4375 11.851562-4.539062 23.382812-7.78125 33.011719-10.253906-.324219-21.984375-3.53125-32.570312-12.625l20.996094-24.421876c7.78125 6.6875 16.597656 4.851563 19.355468 4.035157zm0 0" fill="#2864f0"/><path d="m250.726562 305.304688-.871093-.875c-14.957031-14.957032-39.207031-14.957032-54.164063 0v110.058593l.023438.023438 55.019531-55.050781c14.949219-14.957032 14.945313-39.203126-.007813-54.15625zm0 0" fill="#ff8fb8"/></svg>