<?xml version="1.0" encoding="iso-8859-1"?>
<!-- Generator: Adobe Illustrator 19.0.0, SVG Export Plug-In . SVG Version: 6.00 Build 0)  -->
<svg version="1.1" id="Layer_1" xmlns="http://www.w3.org/2000/svg" xmlns:xlink="http://www.w3.org/1999/xlink" x="0px" y="0px"
	 viewBox="0 0 512 512" style="enable-background:new 0 0 512 512;" xml:space="preserve" width="128" height="128">
<ellipse style="fill:#878493;" cx="184" cy="334.23" rx="184" ry="75.6"/>
<path style="fill:#787485;" d="M208,401.04c-101.62,0-184-33.848-184-75.603c0-20.066,19.032-38.303,50.075-51.838
	C29.114,287.385,0,309.411,0,334.234c0,41.754,82.38,75.603,184,75.603c52.785,0,100.371-9.135,133.925-23.765
	C287.254,395.474,249.21,401.04,208,401.04z"/>
<ellipse style="fill:#878493;" cx="184" cy="234.23" rx="135.69" ry="63.6"/>
<path style="fill:#787485;" d="M199.686,289.836c-74.937,0-135.686-30.445-135.686-68c0-8.438,3.075-16.515,8.681-23.97
	c-15.354,10.307-24.366,22.843-24.366,36.368c0,35.127,60.749,63.603,135.686,63.603c47.935,0,90.062-11.652,114.199-29.243
	C273.47,281.674,238.481,289.836,199.686,289.836z"/>
<ellipse style="fill:#878493;" cx="184" cy="158.23" rx="103.2" ry="51.603"/>
<path style="fill:#787485;" d="M199.205,201.836C142.207,201.836,96,178.733,96,150.234c0-11.787,7.91-22.649,21.213-31.338
	c-22.278,9.465-36.418,23.575-36.418,39.338c0,28.499,46.207,51.603,103.205,51.603c33.424,0,63.131-7.947,81.992-20.265
	C247.991,197.219,224.678,201.836,199.205,201.836z"/>
<ellipse style="fill:#A5A2AE;" cx="236" cy="161.84" rx="20" ry="16"/>
<path style="fill:#68DEC8;" d="M222.777,65.161c-19.021-1.096-38.092,7.681-49.322,24.74c-11.23,17.058-11.754,38.046-3.228,55.084
	c19.021,1.096,38.092-7.681,49.322-24.74C230.779,103.188,231.303,82.2,222.777,65.161z"/>
<path style="fill:#38C7C2;" d="M222.777,65.162c-19.021-1.096-38.092,7.682-49.322,24.74c-11.23,17.058-11.754,38.046-3.228,55.084
	L222.777,65.162z"/>
<path style="fill:#68DEC8;" d="M105.858,78.047c-4.874,18.265-0.162,38.556,14.166,52.884c14.329,14.329,34.619,19.04,52.884,14.166
	c4.874-18.265,0.162-38.556-14.166-52.884S124.123,73.173,105.858,78.047z"/>
<path style="fill:#38C7C2;" d="M120.024,130.931c14.329,14.329,34.619,19.04,52.884,14.166l-67.05-67.05
	C100.984,96.312,105.696,116.602,120.024,130.931z"/>
<path style="fill:#E6608D;" d="M323.293,302.571c-22.51-38.989-62.79-64.273-107.748-67.637c-3.27-0.256-6.377,1.542-7.804,4.506
	c-19.566,40.617-17.81,88.143,4.701,127.131c22.51,38.987,62.79,64.272,107.748,67.637c0.2,0.016,0.4,0.022,0.6,0.022
	c3.053,0,5.864-1.746,7.204-4.528C347.561,389.085,345.804,341.559,323.293,302.571z"/>
<path style="fill:#F082A6;" d="M261.1,317.857c-38.987-22.512-86.513-24.268-127.131-4.701c-2.964,1.428-4.751,4.523-4.506,7.804
	c3.363,44.958,28.647,85.238,67.637,107.748v0.001c20.991,12.118,44.452,18.222,67.982,18.222c20.174,0,40.4-4.489,59.148-13.521
	c2.964-1.428,4.751-4.523,4.506-7.804C325.373,380.647,300.089,340.367,261.1,317.857z"/>
<path style="fill:#E6608D;" d="M279.641,437.132c-23.53,0-46.991-6.104-67.982-18.222v-0.001
	c-38.989-22.51-64.273-62.79-67.637-107.748c-0.062-0.826,0.007-1.641,0.189-2.42c-3.455,1.33-6.875,2.792-10.243,4.414
	c-2.964,1.428-4.751,4.523-4.506,7.804c3.363,44.958,28.647,85.238,67.637,107.748v0.001c20.991,12.118,44.452,18.222,67.982,18.222
	c20.174,0,40.4-4.489,59.148-13.521c2.214-1.066,3.769-3.064,4.313-5.373C312.77,434.105,296.189,437.132,279.641,437.132z"/>
<path style="fill:#F6A7C5;" d="M433.699,239.44c-1.427-2.966-4.532-4.762-7.804-4.506c-44.958,3.363-85.238,28.647-107.748,67.637
	c-22.511,38.988-24.268,86.515-4.701,127.131c1.34,2.782,4.151,4.528,7.204,4.528c0.199,0,0.399-0.007,0.6-0.022
	c44.958-3.364,85.238-28.649,107.748-67.637C451.509,327.582,453.266,280.057,433.699,239.44z"/>
<path style="fill:#F082A6;" d="M507.472,313.156c-40.616-19.567-88.144-17.81-127.131,4.701
	c-38.989,22.51-64.273,62.79-67.637,107.748c-0.245,3.28,1.542,6.376,4.506,7.804c18.751,9.033,38.972,13.521,59.148,13.521
	c23.527,0,46.993-6.104,67.982-18.222v-0.001c38.989-22.51,64.273-62.79,67.637-107.748
	C512.223,317.678,510.436,314.583,507.472,313.156z"/>
<path style="fill:#E6608D;" d="M507.472,313.156c-1.386-0.667-2.781-1.305-4.182-1.923c-3.385,44.929-28.662,85.179-67.63,107.677
	v0.001c-20.989,12.117-44.455,18.222-67.983,18.222c-18.686,0-37.407-3.857-54.966-11.601c-0.002,0.025-0.005,0.049-0.007,0.074
	c-0.245,3.28,1.542,6.376,4.506,7.804c18.751,9.033,38.972,13.521,59.148,13.521c23.527,0,46.993-6.104,67.982-18.222v-0.001
	c38.989-22.51,64.273-62.79,67.637-107.748C512.223,317.678,510.436,314.583,507.472,313.156z"/>
<path style="fill:#FFD9E4;" d="M325.303,207.98c-2.719-1.854-6.293-1.854-9.012,0c-37.253,25.393-59.494,67.43-59.494,112.449
	s22.241,87.057,59.494,112.449c1.359,0.927,2.933,1.39,4.506,1.39s3.146-0.463,4.506-1.39
	c37.253-25.392,59.494-67.429,59.494-112.449S362.556,233.371,325.303,207.98z"/>
<path style="fill:#F6A7C5;" d="M272,327.997c0-45.02,22.241-87.057,59.494-112.449c0.773-0.527,1.619-0.887,2.491-1.114
	c-2.798-2.251-5.686-4.412-8.683-6.454c-2.719-1.854-6.293-1.854-9.012,0c-37.253,25.393-59.494,67.43-59.494,112.449
	s22.241,87.057,59.494,112.449c1.359,0.927,2.933,1.39,4.506,1.39c0.678,0,1.353-0.104,2.015-0.275
	C290.818,408.26,272,369.396,272,327.997z"/>
<g>
</g>
<g>
</g>
<g>
</g>
<g>
</g>
<g>
</g>
<g>
</g>
<g>
</g>
<g>
</g>
<g>
</g>
<g>
</g>
<g>
</g>
<g>
</g>
<g>
</g>
<g>
</g>
<g>
</g>
</svg>
